<mxfile host="www.draw.io" modified="2020-03-16T20:39:35.220Z" agent="Mozilla/5.0 (Macintosh; Intel Mac OS X 10_15_1) AppleWebKit/537.36 (KHTML, like Gecko) Chrome/80.0.3987.132 Safari/537.36" etag="4f0tQ69H1nXjMMxO8yX_" version="12.8.5" type="github" pages="3">
  <diagram id="qlwX-9r8trYWYWGOXYbg" name="01 - comm">
    <mxGraphModel dx="676" dy="359" grid="1" gridSize="10" guides="1" tooltips="1" connect="1" arrows="1" fold="1" page="1" pageScale="1" pageWidth="1920" pageHeight="1200" math="0" shadow="0">
      <root>
        <mxCell id="0" />
        <mxCell id="1" parent="0" />
        <mxCell id="OYluc0RHpQjr6Qsa2xlA-1" value="Microservices" style="rounded=0;whiteSpace=wrap;html=1;fillColor=#dae8fc;strokeColor=#6c8ebf;shadow=1;fontSize=33;" vertex="1" parent="1">
          <mxGeometry x="490" y="260" width="380" height="110" as="geometry" />
        </mxCell>
        <mxCell id="OYluc0RHpQjr6Qsa2xlA-3" value="Whirlwind tour!" style="text;html=1;strokeColor=none;fillColor=none;align=center;verticalAlign=middle;whiteSpace=wrap;rounded=0;shadow=1;fontSize=21;fontStyle=2" vertex="1" parent="1">
          <mxGeometry x="540" y="390" width="280" height="20" as="geometry" />
        </mxCell>
      </root>
    </mxGraphModel>
  </diagram>
  <diagram id="BTQ-JIem5EseildOGPtw" name="02 - ecomm">
    <mxGraphModel dx="747" dy="359" grid="1" gridSize="10" guides="1" tooltips="1" connect="1" arrows="1" fold="1" page="1" pageScale="1" pageWidth="1920" pageHeight="1200" math="0" shadow="0">
      <root>
        <mxCell id="7WUI-5wfocPxUuXPmlUI-0" />
        <mxCell id="7WUI-5wfocPxUuXPmlUI-1" parent="7WUI-5wfocPxUuXPmlUI-0" />
        <mxCell id="7WUI-5wfocPxUuXPmlUI-3" value="" style="rounded=0;whiteSpace=wrap;html=1;shadow=1;fontSize=21;fillColor=#dae8fc;strokeColor=#6c8ebf;" vertex="1" parent="7WUI-5wfocPxUuXPmlUI-1">
          <mxGeometry x="390" y="270" width="180" height="230" as="geometry" />
        </mxCell>
        <mxCell id="7WUI-5wfocPxUuXPmlUI-4" value="" style="rounded=0;whiteSpace=wrap;html=1;shadow=1;fontSize=21;fillColor=#d5e8d4;strokeColor=#82b366;" vertex="1" parent="7WUI-5wfocPxUuXPmlUI-1">
          <mxGeometry x="610" y="270" width="180" height="230" as="geometry" />
        </mxCell>
        <mxCell id="7WUI-5wfocPxUuXPmlUI-5" value="" style="rounded=0;whiteSpace=wrap;html=1;shadow=1;fontSize=21;fillColor=#ffe6cc;strokeColor=#d79b00;" vertex="1" parent="7WUI-5wfocPxUuXPmlUI-1">
          <mxGeometry x="840" y="270" width="180" height="230" as="geometry" />
        </mxCell>
        <mxCell id="7WUI-5wfocPxUuXPmlUI-6" value="Users" style="text;html=1;strokeColor=none;fillColor=none;align=center;verticalAlign=middle;whiteSpace=wrap;rounded=0;shadow=1;fontSize=21;fontStyle=1" vertex="1" parent="7WUI-5wfocPxUuXPmlUI-1">
          <mxGeometry x="460" y="246" width="40" height="20" as="geometry" />
        </mxCell>
        <mxCell id="7WUI-5wfocPxUuXPmlUI-7" value="Orders" style="text;html=1;strokeColor=none;fillColor=none;align=center;verticalAlign=middle;whiteSpace=wrap;rounded=0;shadow=1;fontSize=21;fontStyle=1" vertex="1" parent="7WUI-5wfocPxUuXPmlUI-1">
          <mxGeometry x="680" y="246" width="40" height="20" as="geometry" />
        </mxCell>
        <mxCell id="7WUI-5wfocPxUuXPmlUI-8" value="Products" style="text;html=1;strokeColor=none;fillColor=none;align=center;verticalAlign=middle;whiteSpace=wrap;rounded=0;shadow=1;fontSize=21;fontStyle=1" vertex="1" parent="7WUI-5wfocPxUuXPmlUI-1">
          <mxGeometry x="910" y="246" width="40" height="20" as="geometry" />
        </mxCell>
        <mxCell id="7WUI-5wfocPxUuXPmlUI-9" value="Jane" style="rounded=0;whiteSpace=wrap;html=1;shadow=1;fontSize=14;" vertex="1" parent="7WUI-5wfocPxUuXPmlUI-1">
          <mxGeometry x="400" y="290" width="160" height="40" as="geometry" />
        </mxCell>
        <mxCell id="7WUI-5wfocPxUuXPmlUI-10" value="Alex" style="rounded=0;whiteSpace=wrap;html=1;shadow=1;fontSize=14;" vertex="1" parent="7WUI-5wfocPxUuXPmlUI-1">
          <mxGeometry x="400" y="340" width="160" height="40" as="geometry" />
        </mxCell>
        <mxCell id="7WUI-5wfocPxUuXPmlUI-11" value="John" style="rounded=0;whiteSpace=wrap;html=1;shadow=1;fontSize=14;" vertex="1" parent="7WUI-5wfocPxUuXPmlUI-1">
          <mxGeometry x="400" y="390" width="160" height="40" as="geometry" />
        </mxCell>
        <mxCell id="7WUI-5wfocPxUuXPmlUI-12" value="Pants" style="rounded=0;whiteSpace=wrap;html=1;shadow=1;fontSize=14;" vertex="1" parent="7WUI-5wfocPxUuXPmlUI-1">
          <mxGeometry x="850" y="290" width="160" height="40" as="geometry" />
        </mxCell>
        <mxCell id="7WUI-5wfocPxUuXPmlUI-13" value="Shoes" style="rounded=0;whiteSpace=wrap;html=1;shadow=1;fontSize=14;" vertex="1" parent="7WUI-5wfocPxUuXPmlUI-1">
          <mxGeometry x="850" y="340" width="160" height="40" as="geometry" />
        </mxCell>
        <mxCell id="7WUI-5wfocPxUuXPmlUI-14" value="Hat" style="rounded=0;whiteSpace=wrap;html=1;shadow=1;fontSize=14;" vertex="1" parent="7WUI-5wfocPxUuXPmlUI-1">
          <mxGeometry x="850" y="390" width="160" height="40" as="geometry" />
        </mxCell>
        <mxCell id="PN1VQ775qubNk5bEx44j-0" value="Order #1" style="rounded=0;whiteSpace=wrap;html=1;shadow=1;fontSize=14;" vertex="1" parent="7WUI-5wfocPxUuXPmlUI-1">
          <mxGeometry x="620" y="290" width="160" height="40" as="geometry" />
        </mxCell>
      </root>
    </mxGraphModel>
  </diagram>
  <diagram name="03 - ecomm" id="_F4aMO0APWg8X3gfZKjl">
    <mxGraphModel dx="747" dy="359" grid="1" gridSize="10" guides="1" tooltips="1" connect="1" arrows="1" fold="1" page="1" pageScale="1" pageWidth="1920" pageHeight="1200" math="0" shadow="0">
      <root>
        <mxCell id="Z5KhY8FX11t6L0uIZoOr-0" />
        <mxCell id="Z5KhY8FX11t6L0uIZoOr-1" parent="Z5KhY8FX11t6L0uIZoOr-0" />
        <mxCell id="Z5KhY8FX11t6L0uIZoOr-2" value="" style="rounded=0;whiteSpace=wrap;html=1;shadow=1;fontSize=21;fillColor=#dae8fc;strokeColor=#6c8ebf;" vertex="1" parent="Z5KhY8FX11t6L0uIZoOr-1">
          <mxGeometry x="390" y="270" width="180" height="230" as="geometry" />
        </mxCell>
        <mxCell id="Z5KhY8FX11t6L0uIZoOr-3" value="" style="rounded=0;whiteSpace=wrap;html=1;shadow=1;fontSize=21;fillColor=#d5e8d4;strokeColor=#82b366;" vertex="1" parent="Z5KhY8FX11t6L0uIZoOr-1">
          <mxGeometry x="610" y="270" width="180" height="230" as="geometry" />
        </mxCell>
        <mxCell id="Z5KhY8FX11t6L0uIZoOr-4" value="" style="rounded=0;whiteSpace=wrap;html=1;shadow=1;fontSize=21;fillColor=#ffe6cc;strokeColor=#d79b00;" vertex="1" parent="Z5KhY8FX11t6L0uIZoOr-1">
          <mxGeometry x="840" y="270" width="180" height="230" as="geometry" />
        </mxCell>
        <mxCell id="Z5KhY8FX11t6L0uIZoOr-5" value="Users" style="text;html=1;strokeColor=none;fillColor=none;align=center;verticalAlign=middle;whiteSpace=wrap;rounded=0;shadow=1;fontSize=21;fontStyle=1" vertex="1" parent="Z5KhY8FX11t6L0uIZoOr-1">
          <mxGeometry x="460" y="246" width="40" height="20" as="geometry" />
        </mxCell>
        <mxCell id="Z5KhY8FX11t6L0uIZoOr-6" value="Orders" style="text;html=1;strokeColor=none;fillColor=none;align=center;verticalAlign=middle;whiteSpace=wrap;rounded=0;shadow=1;fontSize=21;fontStyle=1" vertex="1" parent="Z5KhY8FX11t6L0uIZoOr-1">
          <mxGeometry x="680" y="246" width="40" height="20" as="geometry" />
        </mxCell>
        <mxCell id="Z5KhY8FX11t6L0uIZoOr-7" value="Products" style="text;html=1;strokeColor=none;fillColor=none;align=center;verticalAlign=middle;whiteSpace=wrap;rounded=0;shadow=1;fontSize=21;fontStyle=1" vertex="1" parent="Z5KhY8FX11t6L0uIZoOr-1">
          <mxGeometry x="910" y="246" width="40" height="20" as="geometry" />
        </mxCell>
        <mxCell id="Z5KhY8FX11t6L0uIZoOr-8" value="Jane" style="rounded=0;whiteSpace=wrap;html=1;shadow=1;fontSize=14;" vertex="1" parent="Z5KhY8FX11t6L0uIZoOr-1">
          <mxGeometry x="400" y="290" width="160" height="40" as="geometry" />
        </mxCell>
        <mxCell id="Z5KhY8FX11t6L0uIZoOr-9" value="Alex" style="rounded=0;whiteSpace=wrap;html=1;shadow=1;fontSize=14;" vertex="1" parent="Z5KhY8FX11t6L0uIZoOr-1">
          <mxGeometry x="400" y="340" width="160" height="40" as="geometry" />
        </mxCell>
        <mxCell id="Z5KhY8FX11t6L0uIZoOr-10" value="John" style="rounded=0;whiteSpace=wrap;html=1;shadow=1;fontSize=14;" vertex="1" parent="Z5KhY8FX11t6L0uIZoOr-1">
          <mxGeometry x="400" y="390" width="160" height="40" as="geometry" />
        </mxCell>
        <mxCell id="Z5KhY8FX11t6L0uIZoOr-11" value="Pants" style="rounded=0;whiteSpace=wrap;html=1;shadow=1;fontSize=14;" vertex="1" parent="Z5KhY8FX11t6L0uIZoOr-1">
          <mxGeometry x="850" y="290" width="160" height="40" as="geometry" />
        </mxCell>
        <mxCell id="Z5KhY8FX11t6L0uIZoOr-12" value="Shoes" style="rounded=0;whiteSpace=wrap;html=1;shadow=1;fontSize=14;" vertex="1" parent="Z5KhY8FX11t6L0uIZoOr-1">
          <mxGeometry x="850" y="340" width="160" height="40" as="geometry" />
        </mxCell>
        <mxCell id="Z5KhY8FX11t6L0uIZoOr-13" value="Hat" style="rounded=0;whiteSpace=wrap;html=1;shadow=1;fontSize=14;" vertex="1" parent="Z5KhY8FX11t6L0uIZoOr-1">
          <mxGeometry x="850" y="390" width="160" height="40" as="geometry" />
        </mxCell>
        <mxCell id="Z5KhY8FX11t6L0uIZoOr-14" value="Order #1&lt;br&gt;&lt;br&gt;&lt;br&gt;&lt;br&gt;" style="rounded=0;whiteSpace=wrap;html=1;shadow=1;fontSize=14;" vertex="1" parent="Z5KhY8FX11t6L0uIZoOr-1">
          <mxGeometry x="620" y="295" width="160" height="85" as="geometry" />
        </mxCell>
        <mxCell id="Z5KhY8FX11t6L0uIZoOr-15" style="edgeStyle=orthogonalEdgeStyle;rounded=0;orthogonalLoop=1;jettySize=auto;html=1;exitX=0;exitY=0.5;exitDx=0;exitDy=0;entryX=1;entryY=0.5;entryDx=0;entryDy=0;fontSize=14;" edge="1" parent="Z5KhY8FX11t6L0uIZoOr-1" source="Z5KhY8FX11t6L0uIZoOr-16" target="Z5KhY8FX11t6L0uIZoOr-8">
          <mxGeometry relative="1" as="geometry" />
        </mxCell>
        <mxCell id="Z5KhY8FX11t6L0uIZoOr-16" value="Jane" style="rounded=0;whiteSpace=wrap;html=1;shadow=0;fontSize=14;fillColor=#e1d5e7;strokeColor=#9673a6;" vertex="1" parent="Z5KhY8FX11t6L0uIZoOr-1">
          <mxGeometry x="645" y="330" width="110" height="20" as="geometry" />
        </mxCell>
        <mxCell id="Z5KhY8FX11t6L0uIZoOr-17" style="edgeStyle=orthogonalEdgeStyle;rounded=0;orthogonalLoop=1;jettySize=auto;html=1;exitX=1;exitY=0.5;exitDx=0;exitDy=0;entryX=0;entryY=0.5;entryDx=0;entryDy=0;fontSize=14;" edge="1" parent="Z5KhY8FX11t6L0uIZoOr-1" source="Z5KhY8FX11t6L0uIZoOr-18" target="Z5KhY8FX11t6L0uIZoOr-13">
          <mxGeometry relative="1" as="geometry" />
        </mxCell>
        <mxCell id="Z5KhY8FX11t6L0uIZoOr-18" value="Hat" style="rounded=0;whiteSpace=wrap;html=1;shadow=0;fontSize=14;fillColor=#fff2cc;strokeColor=#d6b656;" vertex="1" parent="Z5KhY8FX11t6L0uIZoOr-1">
          <mxGeometry x="645" y="355" width="110" height="20" as="geometry" />
        </mxCell>
      </root>
    </mxGraphModel>
  </diagram>
</mxfile>
